<svg width="142" height="157" viewBox="0 0 142 157" fill="none" xmlns="http://www.w3.org/2000/svg">
<g filter="url(#filter0_d)">
<path fill-rule="evenodd" clip-rule="evenodd" d="M12.2995 53.489C10.4527 79.4541 16.3008 127.647 53.8483 138.136C87.6181 147.569 107.111 131.758 115.161 118.856C117.332 115.378 118.228 111.34 119.119 107.33L119.119 107.327C119.206 106.938 119.292 106.549 119.379 106.16C121.375 97.303 125.494 84.0916 128.892 73.7242C131.873 64.6273 128.775 55.2111 120.362 50.6405C116.805 48.7086 113.147 44.9964 112.068 41.0966C111.333 38.4427 110.643 35.5647 110 32.8808C108.688 27.4019 107.569 22.7315 106.654 22.4266C106.536 22.3872 106.351 22.3178 106.106 22.2257C103.651 21.3029 95.1386 18.1038 86.8012 20.0337C81.2016 21.3298 69.0217 18.3865 68.2908 12.6869C67.9058 9.68457 65.1522 7.56583 62.1679 8.07591C54.235 9.43176 43.6806 11.7817 38.3594 14.7126C36.5216 15.7248 35.7641 17.7975 35.7641 19.8953V38.5228C35.7641 42.6413 30.2606 44.0284 28.3075 40.4022C27.0066 37.987 23.7043 37.5908 21.8688 39.6297L15.0338 47.2222C13.4623 48.9678 12.4662 51.1465 12.2995 53.489ZM83.5681 108.913C77.2568 107.546 68.6646 107.362 59.0596 110.856C56.3124 111.855 56.2811 114.921 59.1606 115.426C64.0531 116.283 71.8615 116.396 83.1553 114.248C86.6163 113.59 87.0112 109.659 83.5681 108.913ZM64 75.5C64 84.0604 57.0604 91 48.5 91C39.9396 91 33 84.0604 33 75.5C33 66.9396 39.9396 60 48.5 60C57.0604 60 64 66.9396 64 75.5ZM93.5 91C102.06 91 109 84.0604 109 75.5C109 66.9396 102.06 60 93.5 60C84.9396 60 78 66.9396 78 75.5C78 84.0604 84.9396 91 93.5 91Z" fill="#3466E8"/>
</g>
<defs>
<filter id="filter0_d" x="0" y="0" width="142" height="157" filterUnits="userSpaceOnUse" color-interpolation-filters="sRGB">
<feFlood flood-opacity="0" result="BackgroundImageFix"/>
<feColorMatrix in="SourceAlpha" type="matrix" values="0 0 0 0 0 0 0 0 0 0 0 0 0 0 0 0 0 0 127 0"/>
<feOffset dy="4"/>
<feGaussianBlur stdDeviation="6"/>
<feColorMatrix type="matrix" values="0 0 0 0 0 0 0 0 0 0 0 0 0 0 0 0 0 0 0.238 0"/>
<feBlend mode="normal" in2="BackgroundImageFix" result="effect1_dropShadow"/>
<feBlend mode="normal" in="SourceGraphic" in2="effect1_dropShadow" result="shape"/>
</filter>
</defs>
</svg>
